# xmcd
#
# Track frame offsets:
#	150
#	21814
#	36782
#	51855
#	68788
#	82134
#	95646
#	112383
#	133483
#	149640
#	163973
#	186764
#	207226
#	223523
#	245379
#	264720
#	282295
#	301640
#
# Disc length: 4276 seconds
#
# Revision: 0
# Processed by: cddbd v1.5.2PL0 Copyright (c) Steve Scherf et al.
# Submitted via: EasyCDDAExtractor 16.0.6.1
#
DISCID=1f10b212
DTITLE=Συλλογικός δίσκος - Εντέχνως Ελληνικά 1
DYEAR=2011
DGENRE=Έντεχνη
TTITLE0=Χαΐνηδες - Συνταγές μαγειρικής[Δ.Ζαχαριουδάκης-Γ.Μανωλάκης/Δ.Αποστολάκ
TTITLE0=ης]
TTITLE1=Μπάσης Δημήτρης - Τα Λαδάδικα [Μ. Τόκας-Φ. Γράψας]
TTITLE2=Αρλέτα - Τ αήσυχα βράδια [Λάκης Παπαδόπουλος-Μ. Κριεζή]
TTITLE3=Περίδης Ορφέας - Τα τραγούδια μου τ' αμερικάνικα [Ορφέας Περίδης]
TTITLE4=Θηβαίος Χρήστος-Συνήθεις Ύποπτοι - Κόκκινο θολό φεγγάρι [Χρήστος Θηβαί
TTITLE4=ος]
TTITLE5=Ξυδάκης Νίκος-Γλυκερία-Λιδάκης Μ. - Στο Σου Μι Τζου κάποια βραδιά [Ν. 
TTITLE5=Ξυδάκης-Μ. Γκανάς]
TTITLE6=Πέτα Ελένη - Να βάλω τα μεταξωτά [Σ. Μάλαμας-Γ. Τσατσόπουλος]
TTITLE7=Παπάζογλου Νίκος - Υδροχόος [Β. Αλαγιάννη-Μ. Ρασούλης]
TTITLE8=Αρβανιτάκη Ελευθερία - Ό,τι μού λείπει... [Σταμάτης Σπανουδάκης]
TTITLE9=Κατσιμίχας Χάρης-Ζιώγαλας Νίκος - Άρωμα από βανίλια [Νίκος Ζιώγαλας]
TTITLE10=Ξυδούς Μάνος-Πλιάτσικας Φ.-KollektivA - Μαίρη μη λυπάσαι (Oh Mary bon
TTITLE10='t you weep)[απ. Μάνος Ξυδούς]
TTITLE11=Δάρρα Φωτεινή - Το στάλσιμο [Δ. Παπαδημητρίου-Δ. Καψάλης]
TTITLE12=Ζιώγαλας Νίκος - Σαν σταρ του σινεμά [Νίκος Ζιώγαλας]
TTITLE13=Δημητριάδης Γιώργος-Απροσάρμοστοι-Γώγος-Ασημάκης-Δρογώσης κ ά. - Σαν 
TTITLE13=να μην πέρασε μιά μέρα [Γ. Δημητριάδης-Κ. Λειβαδάς]
TTITLE14=Magic De Spell - Sarajevo [Θοδωρής Βλαχάκης]
TTITLE15=Locomondo - Ο γλάρος [mix Γιώργος Μπότης, Μάρκος Κούμαρης]
TTITLE16=Αλχημιστές - Καύτρα [radio mix, Σταμάτης Μεσημέρης]
TTITLE17=Τρίφωνο - Μαγικός χορός [Γρηγόρης Κλιούμης]
EXTD=
EXTT0=
EXTT1=
EXTT2=
EXTT3=
EXTT4=
EXTT5=
EXTT6=
EXTT7=
EXTT8=
EXTT9=
EXTT10=
EXTT11=
EXTT12=
EXTT13=
EXTT14=
EXTT15=
EXTT16=
EXTT17=
PLAYORDER=
